<svg width="184" height="44" viewBox="0 0 184 44" fill="none" xmlns="http://www.w3.org/2000/svg">
<path d="M8.9608 10.7482L26.005 9.63972C29.0362 9.44258 31.5938 11.7432 31.7176 14.7782L32.5897 36.1502C32.7136 39.1853 30.3567 41.8055 27.3256 42.0026L10.2814 43.1111C7.25022 43.3082 4.69257 41.0077 4.56873 37.9726L3.69664 16.6006C3.57279 13.5655 5.92964 10.9453 8.9608 10.7482Z" fill="white" stroke="black"/>
<rect x="0.5" y="6.25" width="29.2696" height="24.1655" rx="5.5" fill="#CF0A0A" stroke="#CF0A0A"/>
<path d="M4.67468 21.9351V21.9177C4.67465 20.1969 5.1984 18.5146 6.17986 17.0831C7.16131 15.6516 8.55649 14.5351 10.1894 13.8743C11.8223 13.2135 13.6197 13.0381 15.3549 13.3703C17.0901 13.7024 18.6854 14.5272 19.9394 15.7405C20.926 15.2667 22.0281 15.0674 23.1238 15.1648C24.2196 15.2623 25.2663 15.6525 26.1484 16.2925C27.0305 16.9325 27.7136 17.7973 28.1222 18.7913C28.5308 19.7854 28.6491 20.87 28.464 21.9254C28.7362 21.95 29.0003 22.0289 29.2398 22.1572C29.4792 22.2856 29.689 22.4605 29.8559 22.6712C30.0227 22.8819 30.1432 23.1239 30.2097 23.3819C30.2763 23.6399 30.2874 23.9085 30.2425 24.1709C29.3433 29.4344 27.1191 32.7659 23.574 34.1674V35.4682C23.574 36.2384 23.2596 36.9769 22.7 37.5215C22.1404 38.066 21.3813 38.3719 20.5899 38.3719H12.6323C11.8409 38.3719 11.0818 38.066 10.5222 37.5215C9.96258 36.9769 9.64818 36.2384 9.64818 35.4682V34.1674C6.10307 32.7659 3.87891 29.4344 2.9797 24.1709C2.93631 23.9155 2.94601 23.6542 3.00824 23.4025C3.07047 23.1507 3.18396 22.9137 3.342 22.7054C3.50004 22.4971 3.69941 22.3218 3.92832 22.1898C4.15723 22.0578 4.41102 21.9719 4.67468 21.937V21.9351ZM6.66408 21.9177H8.65348C8.65348 20.6342 9.17748 19.4032 10.1102 18.4956C11.0429 17.588 12.3079 17.0782 13.627 17.0782C14.946 17.0782 16.2111 17.588 17.1438 18.4956C18.0765 19.4032 18.6005 20.6342 18.6005 21.9177H20.5899C20.5899 20.1207 19.8563 18.3974 18.5505 17.1268C17.2447 15.8562 15.4737 15.1424 13.627 15.1424C11.7803 15.1424 10.0093 15.8562 8.70347 17.1268C7.39767 18.3974 6.66408 20.1207 6.66408 21.9177V21.9177ZM10.6429 21.9177H16.6111C16.6111 21.1476 16.2967 20.409 15.7371 19.8644C15.1774 19.3199 14.4184 19.014 13.627 19.014C12.8356 19.014 12.0765 19.3199 11.5169 19.8644C10.9573 20.409 10.6429 21.1476 10.6429 21.9177ZM24.3021 21.9177H26.4328C26.583 21.3456 26.597 20.7477 26.4737 20.1695C26.3505 19.5914 26.0932 19.0483 25.7216 18.5815C25.3499 18.1148 24.8737 17.7367 24.3291 17.4762C23.7846 17.2157 23.1861 17.0795 22.5793 17.0782C22.1019 17.0782 21.6483 17.1595 21.2265 17.3085C21.5786 17.8583 21.8691 18.4507 22.0919 19.072C22.4708 18.9806 22.869 18.9994 23.237 19.1262C23.605 19.253 23.9267 19.4821 24.1621 19.7852C24.3974 20.0882 24.5362 20.4518 24.5611 20.8309C24.586 21.21 24.496 21.5879 24.3021 21.9177V21.9177ZM21.5846 34.5003H11.6376V35.4682C11.6376 35.7249 11.7424 35.9711 11.9289 36.1527C12.1155 36.3342 12.3685 36.4361 12.6323 36.4361H20.5899C20.8537 36.4361 21.1067 36.3342 21.2933 36.1527C21.4798 35.9711 21.5846 35.7249 21.5846 35.4682V34.5003ZM10.9373 32.5646H22.2849C25.4401 31.5773 27.4374 28.7859 28.2809 23.8535H4.94126C5.78476 28.7859 7.78212 31.5773 10.9373 32.5646Z" fill="black"/>
<g opacity="0.8">
<path d="M55.9413 12.536V16.92H46.7893V21.656H53.6373V25.912H46.7893V35H41.3173V12.536H55.9413ZM57.7293 26.04C57.7293 24.2053 58.0707 22.5947 58.7533 21.208C59.4573 19.8213 60.4067 18.7547 61.6013 18.008C62.796 17.2613 64.1293 16.888 65.6013 16.888C66.86 16.888 67.9587 17.144 68.8973 17.656C69.8573 18.168 70.5933 18.84 71.1053 19.672V17.144H76.5773V35H71.1053V32.472C70.572 33.304 69.8253 33.976 68.8653 34.488C67.9267 35 66.828 35.256 65.5693 35.256C64.1187 35.256 62.796 34.8827 61.6013 34.136C60.4067 33.368 59.4573 32.2907 58.7533 30.904C58.0707 29.496 57.7293 27.8747 57.7293 26.04ZM71.1053 26.072C71.1053 24.7067 70.7213 23.6293 69.9533 22.84C69.2067 22.0507 68.2893 21.656 67.2013 21.656C66.1133 21.656 65.1853 22.0507 64.4173 22.84C63.6707 23.608 63.2973 24.6747 63.2973 26.04C63.2973 27.4053 63.6707 28.4933 64.4173 29.304C65.1853 30.0933 66.1133 30.488 67.2013 30.488C68.2893 30.488 69.2067 30.0933 69.9533 29.304C70.7213 28.5147 71.1053 27.4373 71.1053 26.072ZM87.8001 35.256C86.2428 35.256 84.8561 34.9893 83.6401 34.456C82.4241 33.9227 81.4641 33.1973 80.7601 32.28C80.0561 31.3413 79.6614 30.296 79.5761 29.144H84.9841C85.0481 29.7627 85.3361 30.264 85.8481 30.648C86.3601 31.032 86.9894 31.224 87.7361 31.224C88.4188 31.224 88.9414 31.096 89.3041 30.84C89.6881 30.5627 89.8801 30.2107 89.8801 29.784C89.8801 29.272 89.6134 28.8987 89.0801 28.664C88.5468 28.408 87.6828 28.1307 86.4881 27.832C85.2081 27.5333 84.1414 27.224 83.2881 26.904C82.4348 26.5627 81.6988 26.04 81.0801 25.336C80.4614 24.6107 80.1521 23.64 80.1521 22.424C80.1521 21.4 80.4294 20.472 80.9841 19.64C81.5601 18.7867 82.3921 18.1147 83.4801 17.624C84.5894 17.1333 85.9014 16.888 87.4161 16.888C89.6561 16.888 91.4161 17.4427 92.6961 18.552C93.9974 19.6613 94.7441 21.1333 94.9361 22.968H89.8801C89.7948 22.3493 89.5174 21.8587 89.0481 21.496C88.6001 21.1333 88.0028 20.952 87.2561 20.952C86.6161 20.952 86.1254 21.08 85.7841 21.336C85.4428 21.5707 85.2721 21.9013 85.2721 22.328C85.2721 22.84 85.5388 23.224 86.0721 23.48C86.6268 23.736 87.4801 23.992 88.6321 24.248C89.9548 24.5893 91.0321 24.9307 91.8641 25.272C92.6961 25.592 93.4214 26.1253 94.0401 26.872C94.6801 27.5973 95.0108 28.5787 95.0321 29.816C95.0321 30.8613 94.7334 31.8 94.1361 32.632C93.5601 33.4427 92.7174 34.0827 91.6081 34.552C90.5201 35.0213 89.2508 35.256 87.8001 35.256ZM108.332 30.36V35H105.548C103.564 35 102.017 34.52 100.908 33.56C99.7985 32.5787 99.2438 30.9893 99.2438 28.792V21.688H97.0678V17.144H99.2438V12.792H104.716V17.144H108.3V21.688H104.716V28.856C104.716 29.3893 104.844 29.7733 105.1 30.008C105.356 30.2427 105.783 30.36 106.38 30.36H108.332Z" fill="#CF0A0A"/>
<path d="M116.852 19.672C117.364 18.84 118.1 18.168 119.06 17.656C120.02 17.144 121.119 16.888 122.356 16.888C123.828 16.888 125.161 17.2613 126.356 18.008C127.551 18.7547 128.489 19.8213 129.172 21.208C129.876 22.5947 130.228 24.2053 130.228 26.04C130.228 27.8747 129.876 29.496 129.172 30.904C128.489 32.2907 127.551 33.368 126.356 34.136C125.161 34.8827 123.828 35.256 122.356 35.256C121.097 35.256 119.999 35.0107 119.06 34.52C118.121 34.008 117.385 33.336 116.852 32.504V35H111.38V11.32H116.852V19.672ZM124.66 26.04C124.66 24.6747 124.276 23.608 123.508 22.84C122.761 22.0507 121.833 21.656 120.724 21.656C119.636 21.656 118.708 22.0507 117.94 22.84C117.193 23.6293 116.82 24.7067 116.82 26.072C116.82 27.4373 117.193 28.5147 117.94 29.304C118.708 30.0933 119.636 30.488 120.724 30.488C121.812 30.488 122.74 30.0933 123.508 29.304C124.276 28.4933 124.66 27.4053 124.66 26.04ZM135.851 15.288C134.891 15.288 134.101 15.0107 133.483 14.456C132.885 13.88 132.587 13.176 132.587 12.344C132.587 11.4907 132.885 10.7867 133.483 10.232C134.101 9.656 134.891 9.368 135.851 9.368C136.789 9.368 137.557 9.656 138.155 10.232C138.773 10.7867 139.083 11.4907 139.083 12.344C139.083 13.176 138.773 13.88 138.155 14.456C137.557 15.0107 136.789 15.288 135.851 15.288ZM138.571 17.144V35H133.099V17.144H138.571ZM152.488 30.36V35H149.704C147.72 35 146.173 34.52 145.064 33.56C143.955 32.5787 143.4 30.9893 143.4 28.792V21.688H141.224V17.144H143.4V12.792H148.872V17.144H152.456V21.688H148.872V28.856C148.872 29.3893 149 29.7733 149.256 30.008C149.512 30.2427 149.939 30.36 150.536 30.36H152.488ZM172.368 25.784C172.368 26.296 172.336 26.8293 172.272 27.384H159.888C159.973 28.4933 160.325 29.3467 160.944 29.944C161.584 30.52 162.363 30.808 163.28 30.808C164.645 30.808 165.595 30.232 166.128 29.08H171.952C171.653 30.2533 171.109 31.3093 170.32 32.248C169.552 33.1867 168.581 33.9227 167.408 34.456C166.235 34.9893 164.923 35.256 163.472 35.256C161.723 35.256 160.165 34.8827 158.8 34.136C157.435 33.3893 156.368 32.3227 155.6 30.936C154.832 29.5493 154.448 27.928 154.448 26.072C154.448 24.216 154.821 22.5947 155.568 21.208C156.336 19.8213 157.403 18.7547 158.768 18.008C160.133 17.2613 161.701 16.888 163.472 16.888C165.2 16.888 166.736 17.2507 168.08 17.976C169.424 18.7013 170.469 19.736 171.216 21.08C171.984 22.424 172.368 23.992 172.368 25.784ZM166.768 24.344C166.768 23.4053 166.448 22.6587 165.808 22.104C165.168 21.5493 164.368 21.272 163.408 21.272C162.491 21.272 161.712 21.5387 161.072 22.072C160.453 22.6053 160.069 23.3627 159.92 24.344H166.768Z" fill="black"/>
</g>
</svg>
