<svg width="44" height="44" viewBox="0 0 44 44" fill="none" xmlns="http://www.w3.org/2000/svg">
<path d="M34.65 37.2167L24.3833 26.95C23.4667 27.6833 22.4125 28.2639 21.2208 28.6917C20.0292 29.1194 18.7611 29.3333 17.4167 29.3333C14.0861 29.3333 11.2677 28.1802 8.96133 25.8738C6.65378 23.5663 5.5 20.7472 5.5 17.4167C5.5 14.0861 6.65378 11.2671 8.96133 8.9595C11.2677 6.65317 14.0861 5.5 17.4167 5.5C20.7472 5.5 23.5663 6.65317 25.8738 8.9595C28.1802 11.2671 29.3333 14.0861 29.3333 17.4167C29.3333 18.7611 29.1194 20.0292 28.6917 21.2208C28.2639 22.4125 27.6833 23.4667 26.95 24.3833L37.2625 34.6958C37.5986 35.0319 37.7667 35.4444 37.7667 35.9333C37.7667 36.4222 37.5833 36.85 37.2167 37.2167C36.8806 37.5528 36.4528 37.7208 35.9333 37.7208C35.4139 37.7208 34.9861 37.5528 34.65 37.2167ZM17.4167 25.6667C19.7083 25.6667 21.6566 24.8649 23.2613 23.2613C24.8649 21.6566 25.6667 19.7083 25.6667 17.4167C25.6667 15.125 24.8649 13.1768 23.2613 11.572C21.6566 9.96844 19.7083 9.16667 17.4167 9.16667C15.125 9.16667 13.1768 9.96844 11.572 11.572C9.96844 13.1768 9.16667 15.125 9.16667 17.4167C9.16667 19.7083 9.96844 21.6566 11.572 23.2613C13.1768 24.8649 15.125 25.6667 17.4167 25.6667Z" fill="black"/>
</svg>
